# xmcd
#
# Track frame offsets: 
#        150
#        17855
#        34729
#        57217
#        68551
#        87415
#        106949
#        128467
#        148646
#        169213
#
# Disc length: 2512 seconds
#
# Revision: 1
# Processed by: cddbd v1.5.2PL0 Copyright (c) Steve Scherf et al.
# Submitted via: ExactAudioCopy v0.99pb4
#
DISCID=7f09ce0a
DTITLE=Elvira Nikolaisen - Lighthouse
DYEAR=2011
DGENRE=Rock
TTITLE0=Change
TTITLE1=Close To The Water
TTITLE2=Rendezvous
TTITLE3=Lighthouse
TTITLE4=In Your Car
TTITLE5=Time
TTITLE6=When Love Is New
TTITLE7=Nothing To Loose
TTITLE8=Still Paying
TTITLE9=Cry The Good Tears
EXTD=
EXTT0=
EXTT1=
EXTT2=
EXTT3=
EXTT4=
EXTT5=
EXTT6=
EXTT7=
EXTT8=
EXTT9=
PLAYORDER=
